<svg width="30" height="30" viewBox="0 0 30 30" fill="none" xmlns="http://www.w3.org/2000/svg">
<g clip-path="url(#clip0)">
<path d="M22.5743 7.14364L10.2363 14.7427C9.53806 15.1737 9.20765 16.025 9.43259 16.8124L10.7667 21.4999C10.8806 21.8995 11.2363 22.1652 11.6455 22.1652C11.6683 22.1652 11.6913 22.1644 11.7144 22.1627C12.1519 22.1309 12.498 21.8051 12.5562 21.3708L12.9031 18.8005C12.9499 18.4547 13.1165 18.133 13.3719 17.8952L23.5535 8.43095C23.8611 8.14565 23.9018 7.67849 23.6483 7.34433C23.3943 7.00987 22.9329 6.92339 22.5743 7.14364ZM12.5578 17.0201C12.1003 17.446 11.8022 18.0215 11.7186 18.6406L11.5503 19.8873L10.582 16.4847C10.5033 16.209 10.6192 15.911 10.8635 15.7601L19.9021 10.1933L12.5578 17.0201Z" fill="#2C2C2C"/>
<path d="M29.5116 2.19042C29.1261 1.8637 28.5942 1.77376 28.1231 1.95575L0.883305 12.4641C0.343832 12.6721 -0.0030428 13.1801 -0.000288897 13.7581C0.0025236 14.3367 0.354496 14.8418 0.897133 15.0451L7.25983 17.4199L9.7418 25.4018C9.87809 25.8406 10.2221 26.1816 10.6619 26.3139C11.1015 26.4461 11.5762 26.3515 11.931 26.0613L15.6306 23.0453C15.8083 22.9005 16.062 22.8933 16.2475 23.0281L22.9204 27.8726C23.1604 28.0471 23.4437 28.137 23.7303 28.137C23.8982 28.137 24.0672 28.1061 24.2293 28.0434C24.668 27.8738 24.987 27.4978 25.0825 27.0378L29.9709 3.5236C30.0735 3.02848 29.8976 2.51766 29.5116 2.19042ZM28.8006 3.28073L23.9123 26.7949C23.8946 26.8798 23.8334 26.9152 23.7985 26.9287C23.7633 26.9423 23.6939 26.9573 23.6229 26.9057L16.9498 22.0608C16.6515 21.8443 16.3008 21.7368 15.9507 21.7368C15.5688 21.7368 15.1874 21.8648 14.8757 22.1187L11.1752 25.1354C11.1094 25.1893 11.041 25.1797 11.0062 25.1692C10.9712 25.1587 10.9086 25.1288 10.8832 25.047L8.31416 16.7849C8.25926 16.6084 8.12567 16.4672 7.95247 16.4025L1.31584 13.9256C1.21647 13.8884 1.19532 13.8108 1.19502 13.7523C1.19473 13.6943 1.21512 13.6171 1.31356 13.5792L28.5534 3.0709C28.5535 3.07085 28.5537 3.07079 28.5539 3.07073C28.6423 3.03657 28.7078 3.07583 28.7389 3.10219C28.7702 3.12885 28.82 3.18745 28.8006 3.28073Z" fill="#2C2C2C"/>
<path d="M25.0478 14.7739C24.7251 14.7038 24.407 14.9086 24.337 15.2312L24.2461 15.6495C24.1761 15.9721 24.3809 16.2903 24.7034 16.3603C24.7461 16.3696 24.7887 16.374 24.8308 16.374C25.1059 16.374 25.3534 16.1829 25.4143 15.9031L25.5051 15.4848C25.575 15.1622 25.3703 14.844 25.0478 14.7739Z" fill="#2C2C2C"/>
<path d="M24.4501 17.5267C24.1271 17.4567 23.8092 17.6614 23.7392 17.984L22.3647 24.3151C22.2947 24.6376 22.4994 24.9559 22.8219 25.0259C22.8647 25.0351 22.9073 25.0396 22.9493 25.0396C23.2244 25.0396 23.4719 24.8485 23.5327 24.5687L24.9073 18.2375C24.9773 17.9149 24.7726 17.5967 24.4501 17.5267Z" fill="#2C2C2C"/>
</g>
<defs>
<clipPath id="clip0">
<rect width="30" height="30" fill="white"/>
</clipPath>
</defs>
</svg>
