<svg width="38" height="38" viewBox="0 0 38 38" fill="none" xmlns="http://www.w3.org/2000/svg">
<g filter="url(#filter0_d)">
<path d="M22.1256 0H15.8744C9.32681 0 4 4.86844 4 10.8521V15.9995C4 20.4557 6.99563 24.4604 11.5 26.0918V29.4287C11.5 29.6546 11.6456 29.8594 11.8717 29.9509C11.9529 29.9838 12.0393 30 12.125 30C12.277 30 12.4274 29.9493 12.5446 29.8522L16.1686 26.8517H22.1256C28.6732 26.8517 34 21.9832 34 15.9995V10.8521C34 4.86844 28.6732 0 22.1256 0ZM32.75 15.9995C32.75 21.3534 27.9841 25.709 22.1256 25.709H15.9275C15.7724 25.709 15.6229 25.7615 15.5079 25.8569L12.75 28.1405V25.6957C12.75 25.4535 12.5831 25.2376 12.3331 25.1573C8.09669 23.7881 5.25 20.1081 5.25 15.9995V10.8521C5.25 5.49831 10.0159 1.14262 15.8744 1.14262H22.1256C27.9841 1.14262 32.75 5.49831 32.75 10.8521V15.9995Z" fill="#2C2C2C"/>
<path d="M27.2599 17.4211L23.4183 15.1403C22.9981 14.8909 22.4986 14.806 22.0087 14.8987C21.5186 14.993 21.0977 15.2574 20.8243 15.643L20.6437 15.8968C18.9811 15.3947 17.1479 14.753 16.0505 11.849L16.5049 11.4881H16.5052C17.2849 10.8682 17.367 9.78364 16.6886 9.0695L13.6836 5.9094C13.4571 5.67122 13.0622 5.64666 12.8016 5.85307L10.915 7.35219C9.25968 8.66724 10.0333 10.6127 10.2876 11.2521C10.2988 11.2805 10.3126 11.3079 10.3287 11.3346C10.3944 11.4423 11.9614 13.9982 14.4916 16.3543C17.0322 18.7199 21.6193 20.9047 21.76 20.9683C22.284 21.2791 22.8733 21.428 23.4562 21.428C24.4797 21.428 25.4837 20.9694 26.0822 20.128L27.4436 18.2116C27.6315 17.9466 27.5492 17.5928 27.2599 17.4211ZM25.0339 19.5054C24.4706 20.2982 23.3072 20.5236 22.3881 19.9819C22.3423 19.9601 17.7857 17.7909 15.3837 15.5542C13.1388 13.4637 11.6483 11.1416 11.4447 10.8175C10.9494 9.54877 11.0371 8.76876 11.7347 8.21476L13.1501 7.09053L15.745 9.81935C15.9754 10.0615 15.9489 10.4157 15.6849 10.6255L14.918 11.2348C14.7312 11.3832 14.6576 11.6181 14.7306 11.834C16.0382 15.7177 18.5807 16.4804 20.4371 17.0378L20.7074 17.1192C20.9779 17.2029 21.2745 17.1075 21.4292 16.8888L21.8726 16.265C21.9642 16.1361 22.1039 16.0485 22.2663 16.0173C22.4292 15.9855 22.5959 16.0151 22.7372 16.0987L26.0547 18.0682L25.0339 19.5054Z" fill="#2C2C2C"/>
<path d="M20.4264 9.28212C20.0938 9.19448 19.7483 9.37136 19.654 9.67541C19.5597 9.97895 19.7523 10.2947 20.084 10.3812C21.0154 10.6233 21.757 11.3029 22.0197 12.1548C22.0973 12.4065 22.3481 12.5711 22.621 12.5711C22.6771 12.5711 22.7341 12.5644 22.7909 12.5499C23.123 12.4639 23.3165 12.1487 23.2227 11.8446C22.8434 10.6138 21.7716 9.63193 20.4264 9.28212Z" fill="#2C2C2C"/>
<path d="M25.1829 12.6937C25.239 12.6937 25.2961 12.6871 25.3529 12.6725C25.6852 12.5866 25.8784 12.2709 25.7847 11.9674C25.0474 9.57775 22.9664 7.67134 20.3541 6.99182C20.0221 6.90424 19.6762 7.0822 19.582 7.38517C19.4877 7.68865 19.6802 8.00442 20.0122 8.09091C22.2101 8.66222 23.9612 10.2668 24.5817 12.2775C24.6595 12.5292 24.9101 12.6937 25.1829 12.6937Z" fill="#2C2C2C"/>
<path d="M20.0848 4.33181C19.7522 4.24423 19.4068 4.4211 19.3125 4.72516C19.2182 5.02869 19.4107 5.34446 19.7425 5.43096C23.4672 6.3995 26.4337 9.11769 27.4848 12.5244C27.5623 12.776 27.8132 12.9406 28.086 12.9406C28.1421 12.9406 28.1992 12.9339 28.256 12.9194C28.588 12.8334 28.7815 12.5177 28.6878 12.2141C27.5199 8.42863 24.2234 5.40862 20.0848 4.33181Z" fill="#2C2C2C"/>
</g>
<defs>
<filter id="filter0_d" x="0" y="0" width="38" height="38" filterUnits="userSpaceOnUse" color-interpolation-filters="sRGB">
<feFlood flood-opacity="0" result="BackgroundImageFix"/>
<feColorMatrix in="SourceAlpha" type="matrix" values="0 0 0 0 0 0 0 0 0 0 0 0 0 0 0 0 0 0 127 0"/>
<feOffset dy="4"/>
<feGaussianBlur stdDeviation="2"/>
<feColorMatrix type="matrix" values="0 0 0 0 0 0 0 0 0 0 0 0 0 0 0 0 0 0 0.25 0"/>
<feBlend mode="normal" in2="BackgroundImageFix" result="effect1_dropShadow"/>
<feBlend mode="normal" in="SourceGraphic" in2="effect1_dropShadow" result="shape"/>
</filter>
</defs>
</svg>
